<?xml version="1.0" encoding="UTF-8" standalone="no"?><!DOCTYPE svg PUBLIC "-//W3C//DTD SVG 1.1//EN" "http://www.w3.org/Graphics/SVG/1.1/DTD/svg11.dtd"><svg width="100%" height="100%" viewBox="0 0 2206 2439" version="1.1" xmlns="http://www.w3.org/2000/svg" xmlns:xlink="http://www.w3.org/1999/xlink" xml:space="preserve" xmlns:serif="http://www.serif.com/" style="fill-rule:evenodd;clip-rule:evenodd;stroke-linejoin:round;stroke-miterlimit:2;"><g><path d="M25.61,1969.73c231.047,295.727 585.418,468.566 960.702,468.566c672.866,0 1219.15,-546.283 1219.15,-1219.15c0,-672.867 -546.283,-1219.15 -1219.15,-1219.15c-390.256,0 -756.925,186.828 -986.312,502.551l119.8,87.04c201.525,-277.375 523.658,-441.51 866.512,-441.51c591.138,0 1071.07,479.929 1071.07,1071.07c0,591.138 -479.93,1071.07 -1071.07,1071.07c-329.701,0 -641.029,-151.845 -844.013,-411.652l-116.689,91.168Z" style="fill:#fff;fill-opacity:0.4;"/><path d="M1665.51,1749.8c-163.346,209.074 -413.88,331.268 -679.199,331.268c-475.705,0 -861.916,-386.212 -861.916,-861.916c0,-475.705 386.211,-861.916 861.916,-861.916c275.904,0 535.133,132.083 697.305,355.294l-104.109,75.64c-137.96,-189.885 -358.485,-302.249 -593.196,-302.249c-404.681,0 -733.23,328.55 -733.23,733.231c0,404.681 328.549,733.23 733.23,733.23c225.706,0 438.835,-103.95 577.793,-281.809l101.406,79.227Z" style="fill:#fff;"/></g></svg>